<?xml version="1.0" standalone="no"?>
<!DOCTYPE svg PUBLIC "-//W3C//DTD SVG 20010904//EN"
 "http://www.w3.org/TR/2001/REC-SVG-20010904/DTD/svg10.dtd">
<svg version="1.0" xmlns="http://www.w3.org/2000/svg"
 width="500.000000pt" height="500.000000pt" viewBox="0 0 500.000000 500.000000"
 preserveAspectRatio="xMidYMid meet">

<g transform="translate(0.000000,500.000000) scale(0.100000,-0.100000)"
fill="#000000" stroke="none">
<path d="M2750 4174 c-25 -9 -108 -40 -185 -69 -171 -65 -578 -214 -900 -330
-282 -101 -315 -113 -545 -198 -96 -36 -224 -82 -285 -102 -144 -48 -224 -93
-301 -172 -89 -89 -139 -195 -154 -320 -20 -179 21 -326 127 -451 49 -57 140
-126 218 -166 28 -13 131 -54 230 -89 160 -58 519 -193 1160 -435 265 -100
293 -106 415 -99 119 7 28 -26 1055 382 306 122 350 135 441 137 96 2 147 -9
193 -43 53 -38 73 -79 77 -157 5 -99 -42 -192 -126 -254 -41 -30 -180 -93
-272 -123 -29 -10 -58 -21 -63 -26 -6 -4 -98 -42 -205 -83 -230 -88 -468 -182
-745 -293 -294 -118 -351 -132 -456 -113 -43 8 -488 172 -594 219 -11 5 -65
27 -120 50 -90 36 -140 55 -215 81 -14 4 -106 41 -205 80 -99 39 -277 109
-395 155 -118 45 -258 99 -310 120 -52 20 -117 45 -143 56 -78 32 -78 33 -75
-158 l3 -168 165 -66 c91 -36 253 -100 360 -142 107 -42 294 -115 415 -162
121 -47 229 -90 240 -95 11 -5 119 -48 240 -95 121 -47 288 -113 370 -145 219
-87 243 -93 360 -88 91 4 111 8 220 51 66 27 138 56 160 67 22 10 67 29 100
41 33 12 79 30 101 40 23 10 68 28 100 40 33 12 77 30 99 39 22 10 255 104
519 209 263 105 500 203 526 217 107 58 212 189 251 313 32 102 30 288 -5 396
-79 247 -307 382 -592 353 -59 -6 -272 -72 -349 -108 -11 -5 -83 -31 -160 -59
-77 -27 -158 -56 -180 -64 -138 -53 -489 -182 -590 -217 -170 -59 -264 -65
-390 -22 -78 26 -197 70 -315 117 -64 25 -354 137 -420 162 -153 57 -329 125
-450 173 -58 23 -149 57 -203 76 -164 57 -209 90 -245 174 -33 80 14 227 90
278 35 23 53 27 137 30 95 4 99 3 246 -48 83 -29 220 -76 305 -106 85 -29 239
-82 342 -118 l188 -65 417 -11 c230 -6 458 -8 508 -4 90 7 168 30 315 94 36
15 175 72 310 125 135 53 260 104 279 112 18 8 45 19 60 23 14 5 123 47 241
95 118 48 235 95 260 105 141 56 206 84 212 94 13 19 9 221 -4 238 -7 9 -40
24 -73 33 -33 10 -98 30 -145 45 -89 29 -232 74 -435 135 -66 20 -160 49 -210
65 -49 16 -130 40 -180 55 -90 27 -185 56 -260 80 -378 125 -465 142 -555 109z
m215 -358 c28 -8 131 -41 230 -72 99 -30 270 -84 380 -119 110 -35 233 -73
273 -85 45 -14 70 -26 65 -31 -26 -26 -847 -364 -908 -374 -16 -3 -41 -7 -55
-9 -58 -9 -157 44 -346 186 -51 37 -98 68 -105 68 -8 0 -50 -25 -94 -56 -297
-206 -308 -210 -475 -150 -52 19 -158 56 -235 83 -185 66 -221 82 -209 92 5 5
38 19 74 31 64 23 344 125 550 201 364 135 689 252 715 258 31 8 57 3 140 -23z"/>
</g>
</svg>
